<svg width="88" height="16" viewBox="0 0 88 16" fill="none" xmlns="http://www.w3.org/2000/svg">
<path d="M9.38086 13.418V15H0.650391V0.908203H9.38086V2.49023H2.4082V7.01172H9.01953V8.57422H2.4082V13.418H9.38086ZM19.7715 4.84375L16.041 15H14.3027L10.5625 4.84375H12.3496L15.1523 13.1934H15.1914L18.0039 4.84375H19.7715ZM24.8887 6.14258C23.2969 6.14258 22.1836 7.36328 22.0762 9.05273H27.5938C27.5547 7.35352 26.4902 6.14258 24.8887 6.14258ZM27.5547 12.0898H29.2246C28.9316 13.8672 27.2129 15.1758 24.9961 15.1758C22.0859 15.1758 20.3184 13.1543 20.3184 9.96094C20.3184 6.80664 22.1152 4.66797 24.918 4.66797C27.6621 4.66797 29.3516 6.66016 29.3516 9.73633V10.3809H22.0664V10.4785C22.0664 12.4219 23.209 13.7012 25.0352 13.7012C26.3242 13.7012 27.2715 13.0469 27.5547 12.0898ZM31.0703 15V4.84375H32.6719V6.46484H32.7109C33.2773 5.37109 34.3613 4.66797 35.9336 4.66797C38.1602 4.66797 39.4492 6.10352 39.4492 8.4082V15H37.75V8.71094C37.75 7.07031 36.9785 6.17188 35.416 6.17188C33.8145 6.17188 32.7695 7.30469 32.7695 9.02344V15H31.0703ZM42.1641 2.39258H43.8633V4.84375H45.8359V6.24023H43.8633V12.2754C43.8633 13.2031 44.2539 13.623 45.123 13.623C45.3184 13.623 45.709 13.5938 45.8262 13.5742V15C45.6211 15.0488 45.1523 15.0781 44.752 15.0781C42.8867 15.0781 42.1641 14.3164 42.1641 12.3633V6.24023H40.6504V4.84375H42.1641V2.39258ZM51.5684 15.1758C48.7559 15.1758 46.8613 13.1543 46.8613 9.92188C46.8613 6.67969 48.7559 4.66797 51.5684 4.66797C54.3711 4.66797 56.2656 6.67969 56.2656 9.92188C56.2656 13.1543 54.3711 15.1758 51.5684 15.1758ZM51.5684 13.6816C53.3652 13.6816 54.5371 12.3145 54.5371 9.92188C54.5371 7.5293 53.3652 6.16211 51.5684 6.16211C49.7715 6.16211 48.5898 7.5293 48.5898 9.92188C48.5898 12.3145 49.7715 13.6816 51.5684 13.6816ZM57.9844 15V4.84375H59.5859V6.50391H59.625C59.957 5.38086 60.8945 4.66797 62.0859 4.66797C62.3789 4.66797 62.6328 4.7168 62.7695 4.73633V6.38672C62.6328 6.33789 62.2715 6.28906 61.8613 6.28906C60.543 6.28906 59.6836 7.23633 59.6836 8.67188V15H57.9844ZM69.7422 15H64.4199V0.908203H69.7617C72.1738 0.908203 73.8047 2.31445 73.8047 4.42383C73.8047 5.88867 72.7305 7.25586 71.373 7.5V7.57812C73.2871 7.82227 74.5176 9.16992 74.5176 11.0449C74.5176 13.5254 72.7402 15 69.7422 15ZM66.1777 2.46094V6.98242H68.8145C70.8945 6.98242 72.0273 6.15234 72.0273 4.62891C72.0273 3.23242 71.0703 2.46094 69.3613 2.46094H66.1777ZM66.1777 13.4473H69.4785C71.5977 13.4473 72.7109 12.5879 72.7109 10.957C72.7109 9.32617 71.5586 8.49609 69.3125 8.49609H66.1777V13.4473ZM76.5098 0.908203H81.2461C85.4258 0.908203 87.8965 3.51562 87.8965 7.94922C87.8965 12.3926 85.4355 15 81.2461 15H76.5098V0.908203ZM78.2676 2.49023V13.418H81.1289C84.3223 13.418 86.0996 11.4648 86.0996 7.96875C86.0996 4.44336 84.332 2.49023 81.1289 2.49023H78.2676Z" fill="url(#paint0_linear_3_702)"/>
<defs>
<linearGradient id="paint0_linear_3_702" x1="-1" y1="-2.90505" x2="89.6066" y2="15.9973" gradientUnits="userSpaceOnUse">
<stop offset="0.105824" stop-color="#01ABED"/>
<stop offset="0.478746" stop-color="#865BA6"/>
<stop offset="0.917853" stop-color="#F68F1F"/>
</linearGradient>
</defs>
</svg>
